<svg viewBox="0 0 422 101" fill="none" xmlns="http://www.w3.org/2000/svg">
<path d="M95 50.5C95 75.0767 75.0767 95 50.5 95C25.9233 95 6 75.0767 6 50.5C6 25.9233 25.9233 6 50.5 6C75.0767 6 95 25.9233 95 50.5Z" stroke="#2EEC96" stroke-width="12"/>
<path d="M50.04 74.2C46.72 74.2 43.82 73.74 41.34 72.82C38.9 71.9 36.86 70.64 35.22 69.04C33.58 67.44 32.36 65.56 31.56 63.4C30.76 61.2 30.36 58.84 30.36 56.32V30.52H44.64V54.76C44.64 56.8 45.12 58.4 46.08 59.56C47.08 60.68 48.48 61.24 50.28 61.24C52.08 61.24 53.46 60.68 54.42 59.56C55.42 58.4 55.92 56.8 55.92 54.76V30.52H70.14V56.32C70.14 58.84 69.7 61.2 68.82 63.4C67.98 65.56 66.72 67.44 65.04 69.04C63.36 70.64 61.26 71.9 58.74 72.82C56.26 73.74 53.36 74.2 50.04 74.2Z" fill="white"/>
<path d="M145.369 90H133.231V64.143H124.357V53.892H154.243V64.143H145.369V90ZM174.164 91.02C171.342 91.02 168.877 90.629 166.769 89.847C164.695 89.065 162.961 87.994 161.567 86.634C160.173 85.274 159.136 83.676 158.456 81.84C157.776 79.97 157.436 77.964 157.436 75.822V53.892H169.574V74.496C169.574 76.23 169.982 77.59 170.798 78.576C171.648 79.528 172.838 80.004 174.368 80.004C175.898 80.004 177.071 79.528 177.887 78.576C178.737 77.59 179.162 76.23 179.162 74.496V53.892H191.249V75.822C191.249 77.964 190.875 79.97 190.127 81.84C189.413 83.676 188.342 85.274 186.914 86.634C185.486 87.994 183.701 89.065 181.559 89.847C179.451 90.629 176.986 91.02 174.164 91.02ZM215.494 90H203.356V64.143H194.482V53.892H224.368V64.143H215.494V90ZM224.895 71.742C224.895 68.852 225.405 66.251 226.425 63.939C227.445 61.593 228.839 59.604 230.607 57.972C232.409 56.34 234.534 55.082 236.982 54.198C239.43 53.314 242.082 52.872 244.938 52.872C247.794 52.872 250.446 53.314 252.894 54.198C255.342 55.082 257.467 56.34 259.269 57.972C261.071 59.604 262.482 61.593 263.502 63.939C264.522 66.251 265.032 68.852 265.032 71.742C265.032 74.632 264.522 77.267 263.502 79.647C262.482 82.027 261.071 84.067 259.269 85.767C257.467 87.433 255.342 88.725 252.894 89.643C250.446 90.561 247.794 91.02 244.938 91.02C242.082 91.02 239.43 90.561 236.982 89.643C234.534 88.725 232.409 87.433 230.607 85.767C228.839 84.067 227.445 82.027 226.425 79.647C225.405 77.267 224.895 74.632 224.895 71.742ZM237.798 71.742C237.798 72.932 237.968 74.02 238.308 75.006C238.682 75.992 239.175 76.842 239.787 77.556C240.433 78.27 241.198 78.831 242.082 79.239C242.966 79.613 243.918 79.8 244.938 79.8C245.958 79.8 246.893 79.613 247.743 79.239C248.627 78.831 249.392 78.27 250.038 77.556C250.684 76.842 251.177 75.992 251.517 75.006C251.891 74.02 252.078 72.932 252.078 71.742C252.078 70.586 251.891 69.532 251.517 68.58C251.177 67.594 250.684 66.778 250.038 66.132C249.392 65.452 248.627 64.925 247.743 64.551C246.893 64.177 245.958 63.99 244.938 63.99C243.918 63.99 242.966 64.177 242.082 64.551C241.198 64.925 240.433 65.452 239.787 66.132C239.175 66.778 238.682 67.594 238.308 68.58C237.968 69.532 237.798 70.586 237.798 71.742ZM270.156 53.892H285.711C287.479 53.892 289.23 54.079 290.964 54.453C292.732 54.793 294.296 55.422 295.656 56.34C297.05 57.224 298.172 58.431 299.022 59.961C299.872 61.457 300.297 63.344 300.297 65.622C300.297 67.832 299.753 69.787 298.665 71.487C297.577 73.153 296.013 74.445 293.973 75.363L303.153 90H289.179L282.243 77.097H281.886V90H270.156V53.892ZM281.784 69.141H284.181C284.589 69.141 285.031 69.107 285.507 69.039C286.017 68.971 286.476 68.835 286.884 68.631C287.326 68.393 287.683 68.087 287.955 67.713C288.261 67.305 288.414 66.778 288.414 66.132C288.414 65.486 288.295 64.976 288.057 64.602C287.819 64.228 287.513 63.956 287.139 63.786C286.765 63.582 286.357 63.463 285.915 63.429C285.473 63.361 285.065 63.327 284.691 63.327H281.784V69.141ZM306.563 53.892H318.803V90H306.563V53.892ZM335.586 53.892H348.489L362.565 90H349.356L347.469 84.696H335.994L334.209 90H321.357L335.586 53.892ZM341.859 66.489L338.901 75.414H344.766L341.859 66.489ZM365.134 53.892H377.374V79.596H389.359V90H365.134V53.892ZM404.956 91.02C403.494 91.02 402.049 90.884 400.621 90.612C399.227 90.374 397.867 90.017 396.541 89.541C395.249 89.031 394.025 88.453 392.869 87.807C391.713 87.127 390.676 86.379 389.758 85.563L397.153 77.505C398.003 78.423 399.125 79.239 400.519 79.953C401.947 80.667 403.409 81.024 404.905 81.024C405.585 81.024 406.197 80.905 406.741 80.667C407.319 80.429 407.608 79.987 407.608 79.341C407.608 79.001 407.506 78.712 407.302 78.474C407.132 78.236 406.809 77.998 406.333 77.76C405.857 77.488 405.194 77.199 404.344 76.893C403.528 76.587 402.491 76.23 401.233 75.822C400.009 75.414 398.836 74.938 397.714 74.394C396.592 73.816 395.589 73.119 394.705 72.303C393.855 71.487 393.175 70.518 392.665 69.396C392.155 68.24 391.9 66.863 391.9 65.265C391.9 63.021 392.359 61.117 393.277 59.553C394.195 57.989 395.368 56.714 396.796 55.728C398.258 54.708 399.89 53.977 401.692 53.535C403.494 53.093 405.279 52.872 407.047 52.872C409.427 52.872 411.841 53.331 414.289 54.249C416.771 55.167 418.947 56.493 420.817 58.227L413.269 65.928C412.453 64.908 411.45 64.143 410.26 63.633C409.07 63.089 407.999 62.817 407.047 62.817C406.163 62.817 405.449 62.953 404.905 63.225C404.361 63.463 404.089 63.871 404.089 64.449C404.089 64.993 404.361 65.401 404.905 65.673C405.483 65.945 406.401 66.285 407.659 66.693C408.951 67.101 410.311 67.577 411.739 68.121C413.167 68.665 414.476 69.379 415.666 70.263C416.89 71.113 417.893 72.167 418.675 73.425C419.457 74.683 419.848 76.247 419.848 78.117C419.848 80.293 419.406 82.197 418.522 83.829C417.672 85.427 416.533 86.77 415.105 87.858C413.711 88.912 412.13 89.694 410.362 90.204C408.594 90.748 406.792 91.02 404.956 91.02Z" fill="#2EEC96"/>
<path d="M223.64 12.68H235.84C237.227 12.68 238.6 12.8267 239.96 13.12C241.347 13.3867 242.573 13.88 243.64 14.6C244.733 15.2933 245.613 16.24 246.28 17.44C246.947 18.6133 247.28 20.0933 247.28 21.88C247.28 23.6133 246.853 25.1467 246 26.48C245.147 27.7867 243.92 28.8 242.32 29.52L249.52 41H238.56L233.12 30.88H232.84V41H223.64V12.68ZM232.76 24.64H234.64C234.96 24.64 235.307 24.6133 235.68 24.56C236.08 24.5067 236.44 24.4 236.76 24.24C237.107 24.0533 237.387 23.8133 237.6 23.52C237.84 23.2 237.96 22.7867 237.96 22.28C237.96 21.7733 237.867 21.3733 237.68 21.08C237.493 20.7867 237.253 20.5733 236.96 20.44C236.667 20.28 236.347 20.1867 236 20.16C235.653 20.1067 235.333 20.08 235.04 20.08H232.76V24.64ZM264.915 41.8C262.701 41.8 260.768 41.4933 259.115 40.88C257.488 40.2667 256.128 39.4267 255.035 38.36C253.941 37.2933 253.128 36.04 252.595 34.6C252.061 33.1333 251.795 31.56 251.795 29.88V12.68H261.315V28.84C261.315 30.2 261.635 31.2667 262.275 32.04C262.941 32.7867 263.875 33.16 265.075 33.16C266.275 33.16 267.195 32.7867 267.835 32.04C268.501 31.2667 268.835 30.2 268.835 28.84V12.68H278.315V29.88C278.315 31.56 278.021 33.1333 277.435 34.6C276.875 36.04 276.035 37.2933 274.915 38.36C273.795 39.4267 272.395 40.2667 270.715 40.88C269.061 41.4933 267.128 41.8 264.915 41.8ZM283.21 12.68H292.69L300.77 27.04H300.93L300.53 12.68H309.57V41H299.85L292.01 27.48H291.85L292.25 41H283.21V12.68ZM314.851 12.68H324.331L332.411 27.04H332.571L332.171 12.68H341.211V41H331.491L323.651 27.48H323.491L323.891 41H314.851V12.68ZM346.492 12.68H356.092V41H346.492V12.68ZM361.374 12.68H370.854L378.934 27.04H379.094L378.694 12.68H387.734V41H378.014L370.174 27.48H370.014L370.414 41H361.374V12.68ZM407.415 41.72C405.175 41.72 403.095 41.3733 401.175 40.68C399.282 39.9867 397.628 39 396.215 37.72C394.828 36.4133 393.735 34.84 392.935 33C392.135 31.16 391.735 29.1067 391.735 26.84C391.735 24.5733 392.135 22.52 392.935 20.68C393.735 18.84 394.828 17.2667 396.215 15.96C397.602 14.6533 399.228 13.6533 401.095 12.96C402.962 12.24 404.962 11.88 407.095 11.88C409.308 11.88 411.402 12.24 413.375 12.96C415.375 13.68 417.002 14.6667 418.255 15.92L412.695 22.6C412.108 21.9067 411.415 21.36 410.615 20.96C409.815 20.5333 408.828 20.32 407.655 20.32C406.882 20.32 406.122 20.48 405.375 20.8C404.655 21.0933 404.015 21.5333 403.455 22.12C402.895 22.68 402.442 23.36 402.095 24.16C401.748 24.96 401.575 25.8533 401.575 26.84C401.575 28.8133 402.082 30.4267 403.095 31.68C404.135 32.9067 405.788 33.52 408.055 33.52C408.455 33.52 408.868 33.4933 409.295 33.44C409.722 33.36 410.055 33.2533 410.295 33.12V30.96H405.735V23.48H418.735V38.96C418.068 39.36 417.295 39.7333 416.415 40.08C415.562 40.4 414.642 40.68 413.655 40.92C412.695 41.16 411.682 41.3467 410.615 41.48C409.548 41.64 408.482 41.72 407.415 41.72Z" fill="white"/>
<path d="M204.24 38.113C203.451 38.8037 202.439 39.3833 201.206 39.852C199.997 40.296 198.542 40.518 196.84 40.518C195.582 40.518 194.336 40.37 193.103 40.074C191.87 39.778 190.76 39.3093 189.773 38.668C188.811 38.0267 188.022 37.188 187.405 36.152C186.788 35.116 186.48 33.8703 186.48 32.415C186.48 31.5763 186.616 30.7993 186.887 30.084C187.158 29.344 187.516 28.6903 187.96 28.123C188.429 27.531 188.971 27.013 189.588 26.569C190.229 26.1003 190.908 25.718 191.623 25.422C190.908 24.7807 190.303 24.016 189.81 23.128C189.317 22.2153 189.07 21.1917 189.07 20.057C189.07 18.7743 189.354 17.689 189.921 16.801C190.513 15.913 191.265 15.1977 192.178 14.655C193.091 14.0877 194.102 13.6807 195.212 13.434C196.322 13.1873 197.407 13.064 198.468 13.064C199.553 13.064 200.626 13.1997 201.687 13.471C202.772 13.7177 203.747 14.1247 204.61 14.692C205.473 15.2593 206.176 15.9993 206.719 16.912C207.262 17.8 207.533 18.8853 207.533 20.168C207.533 20.982 207.397 21.722 207.126 22.388C206.855 23.0293 206.485 23.6213 206.016 24.164C205.547 24.682 205.005 25.163 204.388 25.607C203.796 26.0263 203.155 26.421 202.464 26.791L204.277 28.493L206.312 25.57H215.525L209.235 33.229L216.339 40H206.053L204.24 38.113ZM198.542 18.725C197.975 18.725 197.543 18.8977 197.247 19.243C196.976 19.5883 196.84 19.983 196.84 20.427C196.84 20.8463 196.963 21.241 197.21 21.611C197.457 21.981 197.79 22.3263 198.209 22.647C198.776 22.425 199.245 22.129 199.615 21.759C199.985 21.3643 200.17 20.9203 200.17 20.427C200.17 19.9337 200.034 19.5267 199.763 19.206C199.492 18.8853 199.085 18.725 198.542 18.725ZM196.248 29.899C195.903 30.0223 195.57 30.2443 195.249 30.565C194.953 30.8857 194.805 31.342 194.805 31.934C194.805 32.304 194.879 32.6123 195.027 32.859C195.175 33.1057 195.372 33.3153 195.619 33.488C195.866 33.6607 196.137 33.784 196.433 33.858C196.729 33.932 197.013 33.969 197.284 33.969C197.753 33.969 198.184 33.895 198.579 33.747C198.998 33.599 199.307 33.414 199.504 33.192L196.248 29.899Z" fill="#2EEC96"/>
<path d="M138.36 41.8C136.147 41.8 134.213 41.4933 132.56 40.88C130.933 40.2667 129.573 39.4267 128.48 38.36C127.387 37.2933 126.573 36.04 126.04 34.6C125.507 33.1333 125.24 31.56 125.24 29.88V12.68H134.76V28.84C134.76 30.2 135.08 31.2667 135.72 32.04C136.387 32.7867 137.32 33.16 138.52 33.16C139.72 33.16 140.64 32.7867 141.28 32.04C141.947 31.2667 142.28 30.2 142.28 28.84V12.68H151.76V29.88C151.76 31.56 151.467 33.1333 150.88 34.6C150.32 36.04 149.48 37.2933 148.36 38.36C147.24 39.4267 145.84 40.2667 144.16 40.88C142.507 41.4933 140.573 41.8 138.36 41.8ZM166.136 31.88V41H156.656V12.68H168.816C170.256 12.68 171.669 12.84 173.056 13.16C174.442 13.4533 175.682 13.9733 176.776 14.72C177.869 15.44 178.749 16.4133 179.416 17.64C180.082 18.84 180.416 20.36 180.416 22.2C180.416 23.96 180.082 25.4533 179.416 26.68C178.776 27.9067 177.909 28.9067 176.816 29.68C175.749 30.4533 174.509 31.0133 173.096 31.36C171.709 31.7067 170.282 31.88 168.816 31.88H166.136ZM166.136 20.08V24.64H168.136C168.856 24.64 169.509 24.4667 170.096 24.12C170.709 23.7467 171.016 23.1333 171.016 22.28C171.016 21.8267 170.936 21.4667 170.776 21.2C170.616 20.9067 170.389 20.68 170.096 20.52C169.829 20.36 169.522 20.2533 169.176 20.2C168.829 20.12 168.482 20.08 168.136 20.08H166.136Z" fill="white"/>
</svg>
