<svg viewBox="0 0 101 101" fill="none" xmlns="http://www.w3.org/2000/svg">
<path d="M95 50.5C95 75.0767 75.0767 95 50.5 95C25.9233 95 6 75.0767 6 50.5C6 25.9233 25.9233 6 50.5 6C75.0767 6 95 25.9233 95 50.5Z" stroke="#2EEC96" stroke-width="12"/>
<path d="M50.04 74.2C46.72 74.2 43.82 73.74 41.34 72.82C38.9 71.9 36.86 70.64 35.22 69.04C33.58 67.44 32.36 65.56 31.56 63.4C30.76 61.2 30.36 58.84 30.36 56.32V30.52H44.64V54.76C44.64 56.8 45.12 58.4 46.08 59.56C47.08 60.68 48.48 61.24 50.28 61.24C52.08 61.24 53.46 60.68 54.42 59.56C55.42 58.4 55.92 56.8 55.92 54.76V30.52H70.14V56.32C70.14 58.84 69.7 61.2 68.82 63.4C67.98 65.56 66.72 67.44 65.04 69.04C63.36 70.64 61.26 71.9 58.74 72.82C56.26 73.74 53.36 74.2 50.04 74.2Z" fill="white"/>
</svg>
