<svg xmlns="http://www.w3.org/2000/svg" xmlns:xlink="http://www.w3.org/1999/xlink" viewBox="0 0 929 518"><linearGradient id="a" x1="17.538%" x2="88.224%" y1="97.075%" y2="19.28%"><stop offset="0" stop-color="#596063"/><stop offset=".4861" stop-color="#4b5154"/><stop offset=".6359" stop-color="#2b2e2f"/><stop offset=".7761" stop-color="#131515"/><stop offset=".9016" stop-color="#050506"/><stop offset="1" stop-color="#fff"/></linearGradient><g fill="none"><path d="m815 212.2-224.8 174-262.2-80.2 415-305.3" fill="url(#a)" transform="matrix(-1 0 0 1 1143 0)"/><path d="m328.5 212.4h600v-211.5h-528m414.5 305.1-814.7.2 37.4 98.8-37.4 112.7h742.6z" fill="#000"/><path d="m837.1 61.4c0-2.7.3-5.3.8-7.8-13.5 5.3-20.5 18.3-20.5 18.3s-16.9-31.4-48.5-16.5c-29.4 13.9-25.8 51.3.2 76.1 23.8 22.8 42.3 38.7 47.8 40.6h1.1c5.5-1.9 24-17.9 47.8-40.6 10.7-10.3 17.7-22.7 20-34.7-3.6 1.2-7.5 1.8-11.5 1.8-20.5 0-37.2-16.7-37.2-37.2z" fill="#f06da3"/><path d="m838 53.6s-.1 0 0 0c-.6 2.5-.9 5.2-.9 7.8 0 20.5 16.7 37.2 37.2 37.2 4 0 7.8-.6 11.4-1.8z" fill="#000"/><path d="m838 53.6s-.1 0 0 0c-.6 2.5-.9 5.2-.9 7.8 0 20.5 16.7 37.2 37.2 37.2 4 0 7.8-.6 11.4-1.8zm-353.944 111.382c-33.449 0-57.79-23.844-57.79-57.127 0-33.282 24.341-57.126 57.79-57.126 33.282 0 57.623 23.844 57.623 57.126 0 33.283-24.34 57.127-57.623 57.127zm0-20.864c20.367 0 33.448-15.73 33.448-36.263 0-20.698-13.081-36.263-33.448-36.263-20.533 0-33.614 15.565-33.614 36.263 0 20.533 13.081 36.263 33.614 36.263zm97.695 18.877h-23.513v-110.445h51.662c24.01 0 37.091 16.227 37.091 35.6 0 19.209-13.247 35.436-37.091 35.436h-28.15v39.409zm24.837-60.107c9.273 0 16.393-5.63 16.393-14.737 0-9.273-7.12-14.903-16.393-14.903h-24.837v29.64zm124.52 60.107v-20.698h-46.695v-89.747h-23.678v110.445zm-509.868 303.798h-26.66l-6.954-18.71h-47.358l-6.954 18.71h-26.66l42.556-110.445h29.474l42.555 110.445zm-40.071-39.409-17.221-47.523-17.22 47.523h34.44zm152.503 39.41h-25.003l-19.373-75.839-19.208 75.838h-25.004l-31.626-110.445h26.328l19.373 79.812 21.03-79.812h18.38l20.863 79.812 19.373-79.812h26.328l-31.46 110.445zm138.264 0h-26.66l-6.954-18.712h-47.357l-6.955 18.711h-26.66l42.556-110.445h29.474l42.556 110.445zm-40.072-39.41-17.22-47.523-17.222 47.523zm139.92 39.41h-27.157l-21.691-39.244h-17.221v39.243h-23.515v-110.445h51.662c23.017 0 37.257 15.068 37.257 35.6 0 19.374-12.419 29.972-24.341 32.787l25.003 42.058zm-41.231-59.942c9.272 0 16.393-5.63 16.393-15.069 0-9.107-7.12-14.737-16.393-14.737h-24.838v29.806zm101.834 59.941h-43.714v-110.445h43.549c34.607 0 58.617 22.023 58.617 55.14 0 33.448-24.01 55.305-58.452 55.305zm-.165-20.698c21.857 0 34.607-15.73 34.607-34.607 0-19.374-11.922-34.442-34.442-34.442h-20.201v69.05h20.036z" fill="#fff"/></g></svg>